# Blender 3.4.1
# www.blender.org
mtllib Polygon.mtl
o Icosphere
v 0.006278 -0.911953 -0.063677
v 0.546530 -0.512799 0.458552
v -0.229305 -0.419849 0.853687
v -0.818096 -0.404996 0.004897
v -0.261027 -0.349250 -0.878660
v 0.713830 -0.413352 -0.501767
v 0.283959 0.441851 0.811372
v -0.723600 0.447215 0.525720
v -0.683865 0.411679 -0.549735
v 0.306133 0.483637 -0.918199
v 0.894425 0.447215 0.000000
v -0.055589 0.983964 0.136141
vn 0.1508 -0.8545 0.4971
vn 0.5832 -0.8122 0.0175
vn -0.4776 -0.8194 0.3169
vn -0.5088 -0.7774 -0.3698
vn 0.1799 -0.7809 -0.5982
vn 0.9505 -0.2792 0.1367
vn 0.4238 -0.2091 0.8813
vn -0.7982 -0.2472 0.5494
vn -0.8177 -0.2254 -0.5297
vn 0.3319 -0.2689 -0.9042
vn 0.7991 -0.0024 0.6012
vn -0.2660 0.2047 0.9420
vn -0.9900 0.1349 -0.0410
vn -0.3545 0.1980 -0.9138
vn 0.8368 0.1339 -0.5308
vn 0.4959 0.7817 0.3782
vn -0.1862 0.7183 0.6703
vn -0.6428 0.7644 -0.0490
vn -0.2407 0.8423 -0.4823
vn 0.4481 0.8574 -0.2531
vt 0.181819 0.000000
vt 0.363637 0.000000
vt 0.909091 0.000000
vt 0.727273 0.000000
vt 0.545455 0.000000
vt 0.272728 0.157461
vt 1.000000 0.157461
vt 0.090910 0.157461
vt 0.818182 0.157461
vt 0.636364 0.157461
vt 0.454546 0.157461
vt 0.181819 0.314921
vt 0.000000 0.314921
vt 0.909091 0.314921
vt 0.727273 0.314921
vt 0.545455 0.314921
vt 0.363637 0.314921
vt 0.272728 0.472382
vt 0.090910 0.472382
vt 0.818182 0.472382
vt 0.636364 0.472382
vt 0.454546 0.472382
s 0
f 1/1/1 2/6/1 3/8/1
f 2/6/2 1/2/2 6/11/2
f 1/3/3 3/7/3 4/9/3
f 1/4/4 4/9/4 5/10/4
f 1/5/5 5/10/5 6/11/5
f 2/6/6 6/11/6 11/17/6
f 3/8/7 2/6/7 7/12/7
f 4/9/8 3/7/8 8/14/8
f 5/10/9 4/9/9 9/15/9
f 6/11/10 5/10/10 10/16/10
f 2/6/11 11/17/11 7/12/11
f 3/8/12 7/12/12 8/13/12
f 4/9/13 8/14/13 9/15/13
f 5/10/14 9/15/14 10/16/14
f 6/11/15 10/16/15 11/17/15
f 7/12/16 11/17/16 12/18/16
f 8/13/17 7/12/17 12/19/17
f 9/15/18 8/14/18 12/20/18
f 10/16/19 9/15/19 12/21/19
f 11/17/20 10/16/20 12/22/20
