# Blender 3.4.1
# www.blender.org
mtllib heart.mtl
o Cube
v -0.195161 -0.341783 0.020489
v -0.195161 -0.341783 -0.020998
v 0.195161 -0.341783 0.020489
v 0.195161 -0.341783 -0.020998
v -0.195161 -0.341783 -0.015079
v -0.195161 -0.341783 -0.009152
v -0.195161 -0.341783 -0.003225
v -0.195161 -0.341783 0.002702
v -0.195161 -0.341783 0.008628
v -0.195161 -0.341783 0.014555
v 0.195161 -0.341783 0.014555
v 0.195161 -0.341783 0.008628
v 0.195161 -0.341783 0.002702
v 0.195161 -0.341783 -0.003225
v 0.195161 -0.341783 -0.009152
v 0.195161 -0.341783 -0.015079
v 0.195161 0.944452 0.959450
v 0.132437 1.000000 1.000000
v 0.132437 1.000000 -1.000000
v 0.195161 0.944441 -0.959463
v 0.132437 1.479643 -0.714632
v 0.195161 1.404450 -0.685753
v 0.132437 1.479643 -0.259187
v 0.195161 1.403915 -0.248791
v 0.132437 1.000000 -0.014875
v 0.195161 0.939964 -0.014354
v 0.132437 1.000000 0.014182
v 0.195161 0.939965 0.013668
v 0.132437 1.479643 0.258493
v 0.195161 1.403926 0.248106
v 0.195161 1.404463 0.685072
v 0.132437 1.479643 0.713939
v -0.156308 1.000000 1.000000
v -0.195161 0.965592 0.974882
v -0.195161 0.965585 -0.974890
v -0.156308 1.000000 -1.000000
v -0.156308 1.479643 0.713939
v -0.195161 1.433074 0.696058
v -0.156308 1.479643 0.258493
v -0.195161 1.432742 0.252059
v -0.156308 1.000000 0.014182
v -0.195161 0.962812 0.013864
v -0.156308 1.000000 -0.014875
v -0.195161 0.962812 -0.014552
v -0.156308 1.479643 -0.259187
v -0.195161 1.432735 -0.252747
v -0.195161 1.433066 -0.696744
v -0.156308 1.479643 -0.714632
vn -0.0000 -0.5894 -0.8078
vn 1.0000 -0.0000 -0.0000
vn -0.0000 0.5113 -0.8594
vn -1.0000 -0.0000 -0.0000
vn -0.0000 -1.0000 -0.0000
vn -0.0000 0.5122 0.8589
vn -0.0000 1.0000 -0.0000
vn -0.0000 0.4539 -0.8911
vn -0.0000 0.4539 0.8911
vn 0.7103 0.3606 0.6046
vn 0.7101 0.3600 -0.6051
vn 0.7690 0.6393 0.0004
vn 0.3810 0.4183 0.8245
vn 0.6915 0.7224 -0.0000
vn 0.3810 0.4183 -0.8245
vn 0.7689 0.6393 -0.0004
vn -0.0000 -0.5896 0.8077
vn -0.7101 0.3600 -0.6051
vn -0.7103 0.3606 0.6046
vn -0.7689 0.6393 -0.0002
vn -0.3815 0.4187 -0.8241
vn -0.6915 0.7224 -0.0000
vn -0.3815 0.4187 0.8241
vn -0.7690 0.6393 0.0002
vt 0.125000 0.750000
vt 0.375000 1.000000
vt 0.375000 0.000000
vt 0.375000 0.250000
vt 0.125000 0.500000
vt 0.375000 0.750000
vt 0.375000 0.500000
vt 0.125000 0.535671
vt 0.375000 0.214329
vt 0.125000 0.571385
vt 0.375000 0.178615
vt 0.125000 0.607099
vt 0.375000 0.142900
vt 0.125000 0.642814
vt 0.375000 0.107186
vt 0.125000 0.678528
vt 0.375000 0.071472
vt 0.125000 0.714242
vt 0.375000 0.035758
vt 0.375000 0.714242
vt 0.375000 0.678528
vt 0.375000 0.642814
vt 0.375000 0.607100
vt 0.375000 0.571385
vt 0.375000 0.535671
vt 0.614650 0.750000
vt 0.665174 0.750000
vt 0.625000 0.790174
vt 0.625000 0.459826
vt 0.665174 0.500000
vt 0.614648 0.500000
vt 0.665174 0.535671
vt 0.614679 0.535671
vt 0.665174 0.571385
vt 0.614606 0.571385
vt 0.665174 0.607099
vt 0.613814 0.607099
vt 0.665174 0.642814
vt 0.613814 0.642814
vt 0.665174 0.678528
vt 0.614607 0.678528
vt 0.614681 0.714242
vt 0.665174 0.714242
vt 0.850115 0.750000
vt 0.625000 0.975115
vt 0.625000 0.000000
vt 0.618589 1.000000
vt 0.618589 0.000000
vt 0.618588 0.250000
vt 0.625000 0.274885
vt 0.850115 0.500000
vt 0.625000 0.250000
vt 0.850115 0.714242
vt 0.625000 0.035758
vt 0.618608 0.035758
vt 0.850115 0.678528
vt 0.625000 0.071472
vt 0.618563 0.071472
vt 0.850115 0.642814
vt 0.625000 0.107186
vt 0.618071 0.107186
vt 0.850115 0.607100
vt 0.625000 0.142900
vt 0.618071 0.142900
vt 0.850115 0.571385
vt 0.625000 0.178615
vt 0.618562 0.178615
vt 0.618607 0.214329
vt 0.850115 0.535671
vt 0.625000 0.214329
s 0
f 2/4/1 35/49/1 36/50/1 19/29/1 20/31/1 4/7/1
f 4/7/2 20/31/2 22/33/2 16/25/2
f 19/30/3 36/51/3 48/69/3 21/32/3
f 5/9/4 47/68/4 35/49/4 2/4/4
f 10/18/5 11/20/5 3/6/5 1/1/5
f 11/20/2 31/42/2 17/26/2 3/6/2
f 10/19/4 38/55/4 40/58/4 9/17/4
f 15/24/2 24/35/2 26/37/2 14/23/2
f 14/23/2 26/37/2 28/39/2 13/22/2
f 13/22/2 28/39/2 30/41/2 12/21/2
f 12/21/2 30/41/2 31/42/2 11/20/2
f 2/5/5 4/7/5 16/25/5 5/8/5
f 5/8/5 16/25/5 15/24/5 6/10/5
f 6/10/5 15/24/5 14/23/5 7/12/5
f 7/12/5 14/23/5 13/22/5 8/14/5
f 8/14/5 13/22/5 12/21/5 9/16/5
f 9/16/5 12/21/5 11/20/5 10/18/5
f 16/25/2 22/33/2 24/35/2 15/24/2
f 6/11/4 46/67/4 47/68/4 5/9/4
f 7/13/4 44/64/4 46/67/4 6/11/4
f 8/15/4 42/61/4 44/64/4 7/13/4
f 9/17/4 40/58/4 42/61/4 8/15/4
f 32/43/6 37/53/6 33/44/6 18/27/6
f 29/40/7 39/56/7 37/53/7 32/43/7
f 27/38/8 41/59/8 39/56/8 29/40/8
f 25/36/7 43/62/7 41/59/7 27/38/7
f 23/34/9 45/65/9 43/62/9 25/36/9
f 21/32/7 48/69/7 45/65/7 23/34/7
f 32/43/10 18/27/10 17/26/10 31/42/10
f 19/30/11 21/32/11 22/33/11 20/31/11
f 21/32/12 23/34/12 24/35/12 22/33/12
f 23/34/13 25/36/13 26/37/13 24/35/13
f 25/36/14 27/38/14 28/39/14 26/37/14
f 27/38/15 29/40/15 30/41/15 28/39/15
f 29/40/16 32/43/16 31/42/16 30/41/16
f 3/6/17 17/26/17 18/28/17 33/45/17 34/47/17 1/2/17
f 48/70/18 36/52/18 35/49/18 47/68/18
f 33/46/19 37/54/19 38/55/19 34/48/19
f 37/54/20 39/57/20 40/58/20 38/55/20
f 39/57/21 41/60/21 42/61/21 40/58/21
f 41/60/22 43/63/22 44/64/22 42/61/22
f 43/63/23 45/66/23 46/67/23 44/64/23
f 45/66/24 48/70/24 47/68/24 46/67/24
f 1/3/4 34/48/4 38/55/4 10/19/4
