# Blender 3.4.1
# www.blender.org
mtllib rosehead.mtl
o Cylinder
v -0.000000 -0.551243 -0.497405
v 0.000000 0.047956 -1.000000
v 0.388887 -0.551243 -0.310127
v 0.781831 0.047956 -0.623490
v 0.484934 -0.551243 0.110683
v 0.974928 0.047956 0.222521
v 0.215816 -0.551243 0.448147
v 0.433884 0.047956 0.900969
v -0.215816 -0.551243 0.448147
v -0.433884 0.047956 0.900969
v -0.484934 -0.551243 0.110683
v -0.974928 0.047956 0.222521
v -0.388887 -0.551243 -0.310127
v -0.781831 0.047956 -0.623490
v 0.679547 -0.048935 -0.251462
v 0.227090 -0.048935 -0.688076
v 0.620292 -0.048935 0.374507
v 0.093944 -0.048935 0.718465
v -0.503146 -0.048935 0.521404
v -0.721356 -0.048935 -0.068285
v -0.396371 -0.048935 -0.606554
v 0.762539 0.310026 -0.282173
v 0.254824 0.310026 -0.772109
v 0.696047 0.310026 0.420245
v 0.105417 0.310026 0.806210
v -0.564594 0.310026 0.585082
v -0.809454 0.310026 -0.076624
v -0.444779 0.310026 -0.680631
v 0.475380 0.224579 0.126984
v 0.395674 0.224579 -0.292494
v 0.197115 0.224579 0.450840
v -0.229582 0.224579 0.435204
v -0.483398 0.224579 0.091851
v -0.373206 0.224579 -0.320668
v 0.018018 0.224579 -0.491718
v 0.569162 0.536954 0.152035
v 0.473732 0.536954 -0.350197
v 0.236001 0.536954 0.539781
v -0.274874 0.536954 0.521061
v -0.578763 0.536954 0.109972
v -0.446832 0.536954 -0.383929
v 0.021573 0.536954 -0.588723
v 0.153667 0.380435 0.244465
v 0.286940 0.380435 0.032279
v -0.095320 0.380435 0.272563
v -0.272530 0.380435 0.095416
v -0.244519 0.380435 -0.153582
v -0.032380 0.380435 -0.286929
v 0.204141 0.380435 -0.204213
v 0.202163 0.710648 0.321616
v 0.377496 0.710648 0.042467
v -0.125403 0.710648 0.358581
v -0.358538 0.710648 0.125528
v -0.321686 0.710648 -0.202051
v -0.042599 0.710648 -0.377481
v 0.268567 0.710648 -0.268661
v 0.041608 0.550299 0.066193
v 0.077694 0.550299 0.008740
v -0.025810 0.550299 0.073801
v -0.073792 0.550299 0.025836
v -0.066208 0.550299 -0.041585
v -0.008767 0.550299 -0.077691
v 0.055275 0.550299 -0.055294
vn 0.3462 -0.6029 -0.7188
vn 0.7778 -0.6029 -0.1775
vn 0.6238 -0.6029 0.4974
vn -0.0000 -0.6029 0.7978
vn -0.6238 -0.6029 0.4974
vn -0.3583 0.9330 0.0326
vn -0.7778 -0.6029 -0.1775
vn -0.3462 -0.6029 -0.7188
vn -0.0000 -1.0000 -0.0000
vn -0.1266 -0.2168 -0.9680
vn 0.3087 0.9330 -0.1848
vn -0.1979 0.9330 0.3005
vn -0.2489 0.9330 -0.2598
vn 0.3370 0.9330 0.1261
vn 0.0480 0.9330 -0.3566
vn 0.1115 0.9330 0.3421
vn -0.0930 0.9624 -0.2554
vn -0.9155 -0.2168 0.3388
vn 0.5340 -0.2168 0.8172
vn 0.6779 -0.2168 -0.7025
vn -0.8357 -0.2168 -0.5046
vn -0.3060 -0.2168 0.9270
vn 0.9719 -0.2168 0.0920
vn 0.4493 -0.2696 -0.8517
vn -0.2283 0.9624 0.1475
vn 0.1946 0.9624 0.1898
vn 0.1417 0.9624 -0.2319
vn -0.2576 0.9624 -0.0865
vn -0.0270 0.9624 0.2704
vn 0.2697 0.9624 -0.0338
vn -0.3169 0.8787 0.3569
vn -0.9304 -0.2696 -0.2485
vn -0.0353 -0.2696 0.9623
vn 0.9460 -0.2696 -0.1798
vn -0.3858 -0.2696 -0.8823
vn -0.7744 -0.2696 0.5724
vn 0.7304 -0.2696 0.6276
vn 0.3204 -0.2413 -0.9161
vn 0.4185 0.8787 0.2296
vn 0.1307 0.8787 -0.4591
vn -0.4766 0.8787 -0.0252
vn 0.0814 0.8787 0.4703
vn 0.4404 0.8787 -0.1841
vn -0.2774 0.8787 -0.3884
vn -0.1677 0.8613 0.4796
vn -0.9644 -0.2413 -0.1085
vn 0.1088 -0.2413 0.9643
vn 0.9159 -0.2413 -0.3207
vn -0.5165 -0.2413 -0.8216
vn -0.6861 -0.2413 0.6863
vn 0.8218 -0.2413 0.5162
vn -0.0000 1.0000 -0.0000
vn 0.5049 0.8613 0.0568
vn -0.0570 0.8613 -0.5049
vn -0.4796 0.8613 0.1679
vn 0.2704 0.8613 0.4302
vn 0.3592 0.8613 -0.3593
vn -0.4303 0.8613 -0.2702
vt 1.000000 0.500000
vt 0.000000 0.500000
vt 0.750000 0.490000
vt 1.000000 1.000000
vt 0.000000 1.000000
vt 0.857143 0.500000
vt 0.937640 0.399638
vt 0.857143 1.000000
vt 0.714286 0.500000
vt 0.983983 0.196595
vt 0.714286 1.000000
vt 0.571429 0.500000
vt 0.854132 0.033767
vt 0.571429 1.000000
vt 0.428571 0.500000
vt 0.645868 0.033767
vt 0.428571 1.000000
vt 0.285714 0.500000
vt 0.516017 0.196595
vt 0.285714 1.000000
vt 0.142857 0.500000
vt 0.562360 0.399638
vt 0.142857 1.000000
vt 0.857143 1.000000
vt 0.000000 1.000000
vt 1.000000 1.000000
vt 0.714286 1.000000
vt 0.571429 1.000000
vt 0.428571 1.000000
vt 0.285714 1.000000
vt 0.142857 1.000000
vt 0.857143 1.000000
vt 1.000000 1.000000
vt 0.000000 1.000000
vt 0.714286 1.000000
vt 0.571429 1.000000
vt 0.428571 1.000000
vt 0.285714 1.000000
vt 0.142857 1.000000
vt 0.857143 1.000000
vt 0.000000 1.000000
vt 1.000000 1.000000
vt 0.714286 1.000000
vt 0.571429 1.000000
vt 0.428571 1.000000
vt 0.285714 1.000000
vt 0.142857 1.000000
vt 0.857143 1.000000
vt 0.000000 1.000000
vt 1.000000 1.000000
vt 0.714286 1.000000
vt 0.571429 1.000000
vt 0.428571 1.000000
vt 0.285714 1.000000
vt 0.142857 1.000000
vt 0.857143 1.000000
vt 0.000000 1.000000
vt 1.000000 1.000000
vt 0.714286 1.000000
vt 0.571429 1.000000
vt 0.428571 1.000000
vt 0.285714 1.000000
vt 0.142857 1.000000
vt 0.857143 1.000000
vt 0.000000 1.000000
vt 1.000000 1.000000
vt 0.714286 1.000000
vt 0.571429 1.000000
vt 0.428571 1.000000
vt 0.285714 1.000000
vt 0.142857 1.000000
vt 0.437640 0.399638
vt 0.857143 1.000000
vt 0.250000 0.490000
vt 0.000000 1.000000
vt 1.000000 1.000000
vt 0.483983 0.196595
vt 0.714286 1.000000
vt 0.354132 0.033767
vt 0.571429 1.000000
vt 0.145868 0.033767
vt 0.428571 1.000000
vt 0.016017 0.196595
vt 0.285714 1.000000
vt 0.062360 0.399638
vt 0.142857 1.000000
s 0
f 1/1/1 2/4/1 4/8/1 3/6/1
f 3/6/2 4/8/2 6/11/2 5/9/2
f 5/9/3 6/11/3 8/14/3 7/12/3
f 7/12/4 8/14/4 10/17/4 9/15/4
f 9/15/5 10/17/5 12/20/5 11/18/5
f 6/11/6 4/8/6 15/24/6 17/27/6
f 11/18/7 12/20/7 14/23/7 13/21/7
f 13/21/8 14/23/8 2/5/8 1/2/8
f 1/3/9 3/7/9 5/10/9 7/13/9 9/16/9 11/19/9 13/22/9
f 16/25/10 21/31/10 28/39/10 23/34/10
f 12/20/11 10/17/11 19/29/11 20/30/11
f 4/8/12 2/4/12 16/26/12 15/24/12
f 8/14/13 6/11/13 17/27/13 18/28/13
f 14/23/14 12/20/14 20/30/14 21/31/14
f 10/17/15 8/14/15 18/28/15 19/29/15
f 2/5/16 14/23/16 21/31/16 16/25/16
f 25/36/17 24/35/17 31/43/17 32/44/17
f 20/30/18 19/29/18 26/37/18 27/38/18
f 18/28/19 17/27/19 24/35/19 25/36/19
f 15/24/20 16/26/20 23/33/20 22/32/20
f 21/31/21 20/30/21 27/38/21 28/39/21
f 19/29/22 18/28/22 25/36/22 26/37/22
f 17/27/23 15/24/23 22/32/23 24/35/23
f 30/41/24 35/47/24 42/55/24 37/49/24
f 22/32/25 23/33/25 30/42/25 29/40/25
f 28/39/26 27/38/26 34/46/26 35/47/26
f 26/37/27 25/36/27 32/44/27 33/45/27
f 24/35/28 22/32/28 29/40/28 31/43/28
f 23/34/29 28/39/29 35/47/29 30/41/29
f 27/38/30 26/37/30 33/45/30 34/46/30
f 37/49/31 42/55/31 49/63/31 44/57/31
f 34/46/32 33/45/32 40/53/32 41/54/32
f 32/44/33 31/43/33 38/51/33 39/52/33
f 29/40/34 30/42/34 37/50/34 36/48/34
f 35/47/35 34/46/35 41/54/35 42/55/35
f 33/45/36 32/44/36 39/52/36 40/53/36
f 31/43/37 29/40/37 36/48/37 38/51/37
f 49/63/38 48/62/38 55/70/38 56/71/38
f 41/54/39 40/53/39 47/61/39 48/62/39
f 39/52/40 38/51/40 45/59/40 46/60/40
f 36/48/41 37/50/41 44/58/41 43/56/41
f 42/55/42 41/54/42 48/62/42 49/63/42
f 40/53/43 39/52/43 46/60/43 47/61/43
f 38/51/44 36/48/44 43/56/44 45/59/44
f 56/71/45 55/70/45 62/84/45 63/86/45
f 47/61/46 46/60/46 53/68/46 54/69/46
f 45/59/47 43/56/47 50/64/47 52/67/47
f 44/57/48 49/63/48 56/71/48 51/65/48
f 48/62/49 47/61/49 54/69/49 55/70/49
f 46/60/50 45/59/50 52/67/50 53/68/50
f 43/56/51 44/58/51 51/66/51 50/64/51
f 57/72/52 58/74/52 63/85/52 62/83/52 61/81/52 60/79/52 59/77/52
f 54/69/53 53/68/53 60/80/53 61/82/53
f 52/67/54 50/64/54 57/73/54 59/78/54
f 51/65/55 56/71/55 63/86/55 58/75/55
f 55/70/56 54/69/56 61/82/56 62/84/56
f 53/68/57 52/67/57 59/78/57 60/80/57
f 50/64/58 51/66/58 58/76/58 57/73/58
